<mxfile host="app.diagrams.net" modified="2020-08-06T14:25:24.568Z" agent="5.0 (Windows NT 10.0; Win64; x64) AppleWebKit/537.36 (KHTML, like Gecko) Chrome/84.0.4147.105 Safari/537.36" etag="MPNWLKc0ZU75xyD4n0ac" version="13.6.0" type="github">
  <diagram id="prtHgNgQTEPvFCAcTncT" name="Page-1">
    <mxGraphModel dx="1038" dy="548" grid="1" gridSize="10" guides="1" tooltips="1" connect="1" arrows="1" fold="1" page="1" pageScale="1" pageWidth="827" pageHeight="1169" math="0" shadow="0">
      <root>
        <mxCell id="0" />
        <mxCell id="1" parent="0" />
        <mxCell id="r8k_xSb1nJP3rNB6Yjzr-2" value="Backend Dev1" style="rounded=0;whiteSpace=wrap;html=1;" vertex="1" parent="1">
          <mxGeometry x="70" y="290" width="120" height="60" as="geometry" />
        </mxCell>
        <mxCell id="r8k_xSb1nJP3rNB6Yjzr-3" value="Backend Dev2" style="rounded=0;whiteSpace=wrap;html=1;" vertex="1" parent="1">
          <mxGeometry x="240" y="290" width="120" height="60" as="geometry" />
        </mxCell>
        <mxCell id="r8k_xSb1nJP3rNB6Yjzr-4" value="UI DEV" style="rounded=0;whiteSpace=wrap;html=1;" vertex="1" parent="1">
          <mxGeometry x="450" y="290" width="120" height="60" as="geometry" />
        </mxCell>
        <mxCell id="r8k_xSb1nJP3rNB6Yjzr-5" value="DataBase DEV" style="rounded=0;whiteSpace=wrap;html=1;" vertex="1" parent="1">
          <mxGeometry x="620" y="290" width="120" height="60" as="geometry" />
        </mxCell>
        <mxCell id="r8k_xSb1nJP3rNB6Yjzr-8" style="edgeStyle=orthogonalEdgeStyle;rounded=0;orthogonalLoop=1;jettySize=auto;html=1;" edge="1" parent="1" source="r8k_xSb1nJP3rNB6Yjzr-7">
          <mxGeometry relative="1" as="geometry">
            <mxPoint x="310" y="280" as="targetPoint" />
          </mxGeometry>
        </mxCell>
        <mxCell id="r8k_xSb1nJP3rNB6Yjzr-10" style="edgeStyle=orthogonalEdgeStyle;rounded=0;orthogonalLoop=1;jettySize=auto;html=1;entryX=0.5;entryY=0;entryDx=0;entryDy=0;" edge="1" parent="1" source="r8k_xSb1nJP3rNB6Yjzr-7" target="r8k_xSb1nJP3rNB6Yjzr-4">
          <mxGeometry relative="1" as="geometry" />
        </mxCell>
        <mxCell id="r8k_xSb1nJP3rNB6Yjzr-11" style="edgeStyle=orthogonalEdgeStyle;rounded=0;orthogonalLoop=1;jettySize=auto;html=1;exitX=1;exitY=0.5;exitDx=0;exitDy=0;entryX=0.37;entryY=-0.05;entryDx=0;entryDy=0;entryPerimeter=0;" edge="1" parent="1" source="r8k_xSb1nJP3rNB6Yjzr-7" target="r8k_xSb1nJP3rNB6Yjzr-5">
          <mxGeometry relative="1" as="geometry" />
        </mxCell>
        <mxCell id="r8k_xSb1nJP3rNB6Yjzr-12" style="edgeStyle=orthogonalEdgeStyle;rounded=0;orthogonalLoop=1;jettySize=auto;html=1;" edge="1" parent="1" source="r8k_xSb1nJP3rNB6Yjzr-7" target="r8k_xSb1nJP3rNB6Yjzr-2">
          <mxGeometry relative="1" as="geometry" />
        </mxCell>
        <mxCell id="r8k_xSb1nJP3rNB6Yjzr-7" value="Git Hub&lt;br&gt;Central place" style="rounded=1;whiteSpace=wrap;html=1;" vertex="1" parent="1">
          <mxGeometry x="340" y="90" width="120" height="60" as="geometry" />
        </mxCell>
      </root>
    </mxGraphModel>
  </diagram>
</mxfile>
